<svg xmlns="http://www.w3.org/2000/svg" xmlns:xlink="http://www.w3.org/1999/xlink" width="120" zoomAndPan="magnify" viewBox="0 0 90 30.000001" height="40" preserveAspectRatio="xMidYMid meet" version="1.2"><defs><clipPath id="705c10e8c8"><path d="M 1.453125 0 L 88.546875 0 L 88.546875 29.03125 L 1.453125 29.03125 Z M 1.453125 0 "/></clipPath><clipPath id="a09eb926c0"><path d="M 4.355469 8.308594 L 22.5 8.308594 L 22.5 22.824219 L 4.355469 22.824219 Z M 4.355469 8.308594 "/></clipPath><clipPath id="9156b134b6"><path d="M 4.355469 10 L 9 10 L 9 15 L 4.355469 15 Z M 4.355469 10 "/></clipPath><clipPath id="bbb8aa0fad"><path d="M 18 10 L 22.5 10 L 22.5 15 L 18 15 Z M 18 10 "/></clipPath></defs><g id="c6ac41e7b2"><g clip-rule="nonzero" clip-path="url(#705c10e8c8)"><path style=" stroke:none;fill-rule:nonzero;fill:#ffffff;fill-opacity:1;" d="M 1.453125 0 L 88.546875 0 L 88.546875 29.03125 L 1.453125 29.03125 Z M 1.453125 0 "/><path style=" stroke:none;fill-rule:nonzero;fill:#ebd230;fill-opacity:1;" d="M 1.453125 0 L 88.546875 0 L 88.546875 29.03125 L 1.453125 29.03125 Z M 1.453125 0 "/></g><g clip-rule="nonzero" clip-path="url(#a09eb926c0)"><path style=" stroke:none;fill-rule:nonzero;fill:#100f0d;fill-opacity:1;" d="M 21.894531 22.21875 L 4.960938 22.21875 L 4.960938 21.914062 C 4.960938 21.417969 5.367188 21.007812 5.867188 21.007812 L 20.988281 21.007812 C 21.488281 21.007812 21.894531 21.417969 21.894531 21.914062 Z M 14.335938 19.800781 L 14.335938 20.402344 L 12.519531 20.402344 L 12.519531 19.800781 Z M 5.917969 19.195312 C 6.042969 18.84375 6.378906 18.589844 6.773438 18.589844 L 20.082031 18.589844 C 20.472656 18.589844 20.8125 18.84375 20.9375 19.195312 Z M 7.078125 17.683594 C 7.078125 14.847656 9.382812 12.542969 12.21875 12.542969 L 14.636719 12.542969 C 17.472656 12.542969 19.777344 14.847656 19.777344 17.683594 L 19.777344 17.984375 L 7.078125 17.984375 Z M 12.824219 11.332031 L 14.03125 11.332031 L 14.03125 11.9375 L 12.824219 11.9375 Z M 12.570312 9.519531 C 12.695312 9.167969 13.035156 8.914062 13.425781 8.914062 C 13.820312 8.914062 14.160156 9.167969 14.285156 9.519531 Z M 20.988281 20.402344 L 14.941406 20.402344 L 14.941406 19.800781 L 21.289062 19.800781 C 21.457031 19.800781 21.59375 19.664062 21.59375 19.496094 C 21.59375 18.769531 21.074219 18.15625 20.382812 18.015625 L 20.382812 17.683594 C 20.382812 14.511719 17.804688 11.9375 14.636719 11.9375 L 14.636719 11.03125 C 14.636719 10.863281 14.5 10.726562 14.335938 10.726562 L 13.730469 10.726562 L 13.730469 10.125 L 14.636719 10.125 C 14.804688 10.125 14.941406 9.988281 14.941406 9.820312 C 14.941406 8.984375 14.261719 8.308594 13.425781 8.308594 C 12.59375 8.308594 11.914062 8.984375 11.914062 9.820312 C 11.914062 9.988281 12.050781 10.125 12.21875 10.125 L 13.125 10.125 L 13.125 10.726562 L 12.519531 10.726562 C 12.355469 10.726562 12.21875 10.863281 12.21875 11.03125 L 12.21875 11.9375 C 9.046875 11.9375 6.472656 14.511719 6.472656 17.683594 L 6.472656 18.015625 C 5.78125 18.15625 5.261719 18.769531 5.261719 19.496094 C 5.261719 19.664062 5.398438 19.800781 5.566406 19.800781 L 11.914062 19.800781 L 11.914062 20.402344 L 5.867188 20.402344 C 5.03125 20.402344 4.355469 21.082031 4.355469 21.914062 L 4.355469 22.21875 C 4.355469 22.550781 4.625 22.824219 4.960938 22.824219 L 21.894531 22.824219 C 22.226562 22.824219 22.5 22.550781 22.5 22.21875 L 22.5 21.914062 C 22.5 21.082031 21.824219 20.402344 20.988281 20.402344 "/></g><g clip-rule="nonzero" clip-path="url(#9156b134b6)"><path style=" stroke:none;fill-rule:nonzero;fill:#100f0d;fill-opacity:1;" d="M 8.191406 11.285156 L 7.871094 10.773438 C 6.433594 11.679688 5.332031 12.984375 4.679688 14.542969 L 5.238281 14.777344 C 5.84375 13.332031 6.863281 12.125 8.191406 11.285156 "/></g><path style=" stroke:none;fill-rule:nonzero;fill:#100f0d;fill-opacity:1;" d="M 5.738281 15.152344 L 6.300781 15.375 C 6.78125 14.152344 7.652344 13.082031 8.753906 12.363281 L 8.421875 11.855469 C 7.214844 12.644531 6.261719 13.816406 5.738281 15.152344 "/><g clip-rule="nonzero" clip-path="url(#bbb8aa0fad)"><path style=" stroke:none;fill-rule:nonzero;fill:#100f0d;fill-opacity:1;" d="M 21.617188 14.777344 L 22.175781 14.542969 C 21.523438 12.984375 20.417969 11.679688 18.984375 10.773438 L 18.660156 11.285156 C 19.992188 12.125 21.011719 13.332031 21.617188 14.777344 "/></g><path style=" stroke:none;fill-rule:nonzero;fill:#100f0d;fill-opacity:1;" d="M 20.554688 15.375 L 21.117188 15.152344 C 20.59375 13.816406 19.640625 12.644531 18.429688 11.855469 L 18.101562 12.363281 C 19.203125 13.082031 20.074219 14.152344 20.554688 15.375 "/><g style="fill:#000000;fill-opacity:1;"><g transform="translate(24.967742, 20.872736)"><path style="stroke:none" d="M 2.578125 -3.234375 C 2.773438 -3.234375 2.941406 -3.257812 3.078125 -3.3125 C 3.210938 -3.363281 3.320312 -3.429688 3.40625 -3.515625 C 3.488281 -3.597656 3.550781 -3.695312 3.59375 -3.8125 C 3.632812 -3.9375 3.65625 -4.0625 3.65625 -4.1875 C 3.65625 -4.457031 3.566406 -4.664062 3.390625 -4.8125 C 3.210938 -4.96875 2.941406 -5.046875 2.578125 -5.046875 L 2.015625 -5.046875 L 2.015625 -3.234375 Z M 5.59375 0 L 4.3125 0 C 4.070312 0 3.898438 -0.0859375 3.796875 -0.265625 L 2.78125 -2.046875 C 2.726562 -2.117188 2.671875 -2.171875 2.609375 -2.203125 C 2.554688 -2.242188 2.476562 -2.265625 2.375 -2.265625 L 2.015625 -2.265625 L 2.015625 0 L 0.59375 0 L 0.59375 -6.109375 L 2.578125 -6.109375 C 3.023438 -6.109375 3.398438 -6.0625 3.703125 -5.96875 C 4.015625 -5.882812 4.269531 -5.757812 4.46875 -5.59375 C 4.664062 -5.4375 4.804688 -5.242188 4.890625 -5.015625 C 4.984375 -4.796875 5.03125 -4.554688 5.03125 -4.296875 C 5.03125 -4.097656 5.003906 -3.910156 4.953125 -3.734375 C 4.898438 -3.554688 4.820312 -3.394531 4.71875 -3.25 C 4.613281 -3.101562 4.484375 -2.96875 4.328125 -2.84375 C 4.179688 -2.726562 4.007812 -2.632812 3.8125 -2.5625 C 3.90625 -2.507812 3.988281 -2.445312 4.0625 -2.375 C 4.144531 -2.3125 4.222656 -2.226562 4.296875 -2.125 Z M 5.59375 0 "/></g></g><g style="fill:#000000;fill-opacity:1;"><g transform="translate(30.489719, 20.872736)"><path style="stroke:none" d="M 2.015625 -5.015625 L 2.015625 -3.59375 L 3.9375 -3.59375 L 3.9375 -2.546875 L 2.015625 -2.546875 L 2.015625 -1.09375 L 4.53125 -1.09375 L 4.53125 0 L 0.59375 0 L 0.59375 -6.109375 L 4.53125 -6.109375 L 4.53125 -5.015625 Z M 2.015625 -5.015625 "/></g></g><g style="fill:#000000;fill-opacity:1;"><g transform="translate(35.302027, 20.872736)"><path style="stroke:none" d="M 4.921875 -5.59375 C 4.921875 -5.519531 4.910156 -5.445312 4.890625 -5.375 C 4.867188 -5.3125 4.835938 -5.25 4.796875 -5.1875 L 1.921875 -1.09375 L 4.828125 -1.09375 L 4.828125 0 L 0.125 0 L 0.125 -0.546875 C 0.125 -0.609375 0.132812 -0.671875 0.15625 -0.734375 C 0.175781 -0.796875 0.207031 -0.851562 0.25 -0.90625 L 3.125 -5.015625 L 0.359375 -5.015625 L 0.359375 -6.109375 L 4.921875 -6.109375 Z M 4.921875 -5.59375 "/></g></g><g style="fill:#000000;fill-opacity:1;"><g transform="translate(40.416671, 20.872736)"><path style="stroke:none" d="M 2.015625 -5.015625 L 2.015625 -3.59375 L 3.9375 -3.59375 L 3.9375 -2.546875 L 2.015625 -2.546875 L 2.015625 -1.09375 L 4.53125 -1.09375 L 4.53125 0 L 0.59375 0 L 0.59375 -6.109375 L 4.53125 -6.109375 L 4.53125 -5.015625 Z M 2.015625 -5.015625 "/></g></g><g style="fill:#000000;fill-opacity:1;"><g transform="translate(45.228979, 20.872736)"><path style="stroke:none" d="M 2.578125 -3.234375 C 2.773438 -3.234375 2.941406 -3.257812 3.078125 -3.3125 C 3.210938 -3.363281 3.320312 -3.429688 3.40625 -3.515625 C 3.488281 -3.597656 3.550781 -3.695312 3.59375 -3.8125 C 3.632812 -3.9375 3.65625 -4.0625 3.65625 -4.1875 C 3.65625 -4.457031 3.566406 -4.664062 3.390625 -4.8125 C 3.210938 -4.96875 2.941406 -5.046875 2.578125 -5.046875 L 2.015625 -5.046875 L 2.015625 -3.234375 Z M 5.59375 0 L 4.3125 0 C 4.070312 0 3.898438 -0.0859375 3.796875 -0.265625 L 2.78125 -2.046875 C 2.726562 -2.117188 2.671875 -2.171875 2.609375 -2.203125 C 2.554688 -2.242188 2.476562 -2.265625 2.375 -2.265625 L 2.015625 -2.265625 L 2.015625 0 L 0.59375 0 L 0.59375 -6.109375 L 2.578125 -6.109375 C 3.023438 -6.109375 3.398438 -6.0625 3.703125 -5.96875 C 4.015625 -5.882812 4.269531 -5.757812 4.46875 -5.59375 C 4.664062 -5.4375 4.804688 -5.242188 4.890625 -5.015625 C 4.984375 -4.796875 5.03125 -4.554688 5.03125 -4.296875 C 5.03125 -4.097656 5.003906 -3.910156 4.953125 -3.734375 C 4.898438 -3.554688 4.820312 -3.394531 4.71875 -3.25 C 4.613281 -3.101562 4.484375 -2.96875 4.328125 -2.84375 C 4.179688 -2.726562 4.007812 -2.632812 3.8125 -2.5625 C 3.90625 -2.507812 3.988281 -2.445312 4.0625 -2.375 C 4.144531 -2.3125 4.222656 -2.226562 4.296875 -2.125 Z M 5.59375 0 "/></g></g><g style="fill:#000000;fill-opacity:1;"><g transform="translate(50.5326, 20.872736)"><path style="stroke:none" d="M 6.078125 -6.109375 L 3.625 0 L 2.34375 0 L -0.109375 -6.109375 L 1.03125 -6.109375 C 1.15625 -6.109375 1.253906 -6.078125 1.328125 -6.015625 C 1.398438 -5.960938 1.457031 -5.894531 1.5 -5.8125 L 2.6875 -2.53125 C 2.738281 -2.382812 2.789062 -2.226562 2.84375 -2.0625 C 2.894531 -1.894531 2.945312 -1.71875 3 -1.53125 C 3.039062 -1.71875 3.082031 -1.894531 3.125 -2.0625 C 3.175781 -2.226562 3.226562 -2.382812 3.28125 -2.53125 L 4.46875 -5.8125 C 4.5 -5.882812 4.550781 -5.953125 4.625 -6.015625 C 4.707031 -6.078125 4.804688 -6.109375 4.921875 -6.109375 Z M 6.078125 -6.109375 "/></g></g><g style="fill:#000000;fill-opacity:1;"><g transform="translate(55.991591, 20.872736)"><path style="stroke:none" d="M 3.828125 -2.34375 L 3.25 -4.015625 C 3.207031 -4.117188 3.160156 -4.242188 3.109375 -4.390625 C 3.066406 -4.535156 3.023438 -4.691406 2.984375 -4.859375 C 2.941406 -4.679688 2.894531 -4.519531 2.84375 -4.375 C 2.789062 -4.226562 2.742188 -4.101562 2.703125 -4 L 2.140625 -2.34375 Z M 6.078125 0 L 4.96875 0 C 4.851562 0 4.753906 -0.0234375 4.671875 -0.078125 C 4.597656 -0.140625 4.539062 -0.21875 4.5 -0.3125 L 4.140625 -1.375 L 1.828125 -1.375 L 1.453125 -0.3125 C 1.421875 -0.226562 1.363281 -0.15625 1.28125 -0.09375 C 1.207031 -0.03125 1.113281 0 1 0 L -0.109375 0 L 2.25 -6.109375 L 3.703125 -6.109375 Z M 6.078125 0 "/></g></g><g style="fill:#000000;fill-opacity:1;"><g transform="translate(61.96288, 20.872736)"><path style="stroke:none" d="M 3.96875 -4.875 C 3.925781 -4.800781 3.878906 -4.75 3.828125 -4.71875 C 3.785156 -4.6875 3.726562 -4.671875 3.65625 -4.671875 C 3.59375 -4.671875 3.523438 -4.691406 3.453125 -4.734375 C 3.378906 -4.773438 3.296875 -4.816406 3.203125 -4.859375 C 3.109375 -4.910156 3 -4.957031 2.875 -5 C 2.757812 -5.039062 2.625 -5.0625 2.46875 -5.0625 C 2.195312 -5.0625 1.992188 -5.003906 1.859375 -4.890625 C 1.734375 -4.773438 1.671875 -4.625 1.671875 -4.4375 C 1.671875 -4.3125 1.707031 -4.207031 1.78125 -4.125 C 1.863281 -4.039062 1.96875 -3.96875 2.09375 -3.90625 C 2.226562 -3.851562 2.375 -3.800781 2.53125 -3.75 C 2.695312 -3.707031 2.863281 -3.65625 3.03125 -3.59375 C 3.207031 -3.53125 3.375 -3.457031 3.53125 -3.375 C 3.695312 -3.300781 3.84375 -3.195312 3.96875 -3.0625 C 4.101562 -2.9375 4.207031 -2.785156 4.28125 -2.609375 C 4.363281 -2.429688 4.40625 -2.210938 4.40625 -1.953125 C 4.40625 -1.671875 4.351562 -1.40625 4.25 -1.15625 C 4.15625 -0.914062 4.015625 -0.703125 3.828125 -0.515625 C 3.640625 -0.335938 3.410156 -0.195312 3.140625 -0.09375 C 2.867188 0.0078125 2.5625 0.0625 2.21875 0.0625 C 2.03125 0.0625 1.835938 0.0390625 1.640625 0 C 1.441406 -0.03125 1.25 -0.0820312 1.0625 -0.15625 C 0.875 -0.226562 0.695312 -0.3125 0.53125 -0.40625 C 0.375 -0.507812 0.238281 -0.617188 0.125 -0.734375 L 0.53125 -1.40625 C 0.570312 -1.445312 0.617188 -1.484375 0.671875 -1.515625 C 0.722656 -1.546875 0.78125 -1.5625 0.84375 -1.5625 C 0.925781 -1.5625 1.007812 -1.535156 1.09375 -1.484375 C 1.1875 -1.429688 1.285156 -1.375 1.390625 -1.3125 C 1.492188 -1.25 1.613281 -1.191406 1.75 -1.140625 C 1.894531 -1.085938 2.0625 -1.0625 2.25 -1.0625 C 2.507812 -1.0625 2.710938 -1.113281 2.859375 -1.21875 C 3.003906 -1.332031 3.078125 -1.515625 3.078125 -1.765625 C 3.078125 -1.910156 3.035156 -2.023438 2.953125 -2.109375 C 2.878906 -2.203125 2.773438 -2.273438 2.640625 -2.328125 C 2.515625 -2.390625 2.367188 -2.441406 2.203125 -2.484375 C 2.046875 -2.535156 1.878906 -2.585938 1.703125 -2.640625 C 1.535156 -2.691406 1.367188 -2.757812 1.203125 -2.84375 C 1.046875 -2.925781 0.90625 -3.03125 0.78125 -3.15625 C 0.65625 -3.289062 0.550781 -3.453125 0.46875 -3.640625 C 0.394531 -3.835938 0.359375 -4.078125 0.359375 -4.359375 C 0.359375 -4.585938 0.398438 -4.8125 0.484375 -5.03125 C 0.578125 -5.25 0.710938 -5.441406 0.890625 -5.609375 C 1.078125 -5.785156 1.300781 -5.921875 1.5625 -6.015625 C 1.820312 -6.117188 2.117188 -6.171875 2.453125 -6.171875 C 2.640625 -6.171875 2.820312 -6.15625 3 -6.125 C 3.175781 -6.101562 3.34375 -6.0625 3.5 -6 C 3.65625 -5.945312 3.800781 -5.878906 3.9375 -5.796875 C 4.082031 -5.722656 4.210938 -5.632812 4.328125 -5.53125 Z M 3.96875 -4.875 "/></g></g><g style="fill:#000000;fill-opacity:1;"><g transform="translate(66.46024, 20.872736)"><path style="stroke:none" d="M 3.515625 -2.328125 L 3.515625 0 L 2.109375 0 L 2.109375 -2.328125 L -0.109375 -6.109375 L 1.140625 -6.109375 C 1.265625 -6.109375 1.359375 -6.078125 1.421875 -6.015625 C 1.492188 -5.960938 1.554688 -5.894531 1.609375 -5.8125 L 2.46875 -4.03125 C 2.539062 -3.882812 2.601562 -3.75 2.65625 -3.625 C 2.71875 -3.507812 2.773438 -3.394531 2.828125 -3.28125 C 2.867188 -3.394531 2.914062 -3.515625 2.96875 -3.640625 C 3.019531 -3.765625 3.082031 -3.894531 3.15625 -4.03125 L 4.015625 -5.8125 C 4.035156 -5.84375 4.054688 -5.875 4.078125 -5.90625 C 4.109375 -5.945312 4.140625 -5.984375 4.171875 -6.015625 C 4.210938 -6.046875 4.257812 -6.066406 4.3125 -6.078125 C 4.363281 -6.097656 4.414062 -6.109375 4.46875 -6.109375 L 5.734375 -6.109375 Z M 3.515625 -2.328125 "/></g></g><g style="fill:#000000;fill-opacity:1;"><g transform="translate(71.700865, 20.872736)"><path style="stroke:none" d="M 6.59375 -3.0625 C 6.59375 -2.613281 6.515625 -2.195312 6.359375 -1.8125 C 6.210938 -1.4375 6 -1.109375 5.71875 -0.828125 C 5.4375 -0.546875 5.097656 -0.328125 4.703125 -0.171875 C 4.316406 -0.015625 3.890625 0.0625 3.421875 0.0625 C 2.941406 0.0625 2.503906 -0.015625 2.109375 -0.171875 C 1.722656 -0.328125 1.390625 -0.546875 1.109375 -0.828125 C 0.835938 -1.109375 0.625 -1.4375 0.46875 -1.8125 C 0.3125 -2.195312 0.234375 -2.613281 0.234375 -3.0625 C 0.234375 -3.5 0.3125 -3.90625 0.46875 -4.28125 C 0.625 -4.664062 0.835938 -5 1.109375 -5.28125 C 1.390625 -5.5625 1.722656 -5.78125 2.109375 -5.9375 C 2.503906 -6.09375 2.941406 -6.171875 3.421875 -6.171875 C 3.890625 -6.171875 4.316406 -6.09375 4.703125 -5.9375 C 5.097656 -5.78125 5.4375 -5.5625 5.71875 -5.28125 C 6 -5 6.210938 -4.664062 6.359375 -4.28125 C 6.515625 -3.90625 6.59375 -3.5 6.59375 -3.0625 Z M 5.140625 -3.0625 C 5.140625 -3.363281 5.097656 -3.632812 5.015625 -3.875 C 4.941406 -4.113281 4.832031 -4.316406 4.6875 -4.484375 C 4.539062 -4.648438 4.359375 -4.78125 4.140625 -4.875 C 3.929688 -4.96875 3.691406 -5.015625 3.421875 -5.015625 C 3.148438 -5.015625 2.90625 -4.96875 2.6875 -4.875 C 2.46875 -4.78125 2.285156 -4.648438 2.140625 -4.484375 C 1.992188 -4.316406 1.878906 -4.113281 1.796875 -3.875 C 1.722656 -3.632812 1.6875 -3.363281 1.6875 -3.0625 C 1.6875 -2.75 1.722656 -2.472656 1.796875 -2.234375 C 1.878906 -1.992188 1.992188 -1.789062 2.140625 -1.625 C 2.285156 -1.457031 2.46875 -1.328125 2.6875 -1.234375 C 2.90625 -1.148438 3.148438 -1.109375 3.421875 -1.109375 C 3.691406 -1.109375 3.929688 -1.148438 4.140625 -1.234375 C 4.359375 -1.328125 4.539062 -1.457031 4.6875 -1.625 C 4.832031 -1.789062 4.941406 -1.992188 5.015625 -2.234375 C 5.097656 -2.472656 5.140625 -2.75 5.140625 -3.0625 Z M 5.140625 -3.0625 "/></g></g><g style="fill:#000000;fill-opacity:1;"><g transform="translate(78.541389, 20.872736)"><path style="stroke:none" d="M 5.921875 -6.109375 L 5.921875 0 L 5.1875 0 C 5.082031 0 4.988281 -0.015625 4.90625 -0.046875 C 4.832031 -0.0859375 4.757812 -0.148438 4.6875 -0.234375 L 1.8125 -3.875 C 1.820312 -3.769531 1.828125 -3.664062 1.828125 -3.5625 C 1.835938 -3.457031 1.84375 -3.363281 1.84375 -3.28125 L 1.84375 0 L 0.59375 0 L 0.59375 -6.109375 L 1.34375 -6.109375 C 1.40625 -6.109375 1.457031 -6.101562 1.5 -6.09375 C 1.539062 -6.09375 1.578125 -6.082031 1.609375 -6.0625 C 1.640625 -6.050781 1.671875 -6.03125 1.703125 -6 C 1.734375 -5.976562 1.769531 -5.941406 1.8125 -5.890625 L 4.71875 -2.21875 C 4.695312 -2.34375 4.679688 -2.457031 4.671875 -2.5625 C 4.671875 -2.675781 4.671875 -2.78125 4.671875 -2.875 L 4.671875 -6.109375 Z M 5.921875 -6.109375 "/></g></g><g style="fill:#000000;fill-opacity:1;"><g transform="translate(85.068642, 20.872736)"><path style="stroke:none" d=""/></g></g><g style="fill:#000000;fill-opacity:1;"><g transform="translate(24.967742, 13.749432)"><path style="stroke:none" d="M 4.328125 -2.03125 C 4.328125 -1.738281 4.273438 -1.460938 4.171875 -1.203125 C 4.078125 -0.953125 3.941406 -0.734375 3.765625 -0.546875 C 3.585938 -0.359375 3.367188 -0.210938 3.109375 -0.109375 C 2.859375 -0.00390625 2.578125 0.046875 2.265625 0.046875 C 1.960938 0.046875 1.679688 -0.00390625 1.421875 -0.109375 C 1.171875 -0.210938 0.957031 -0.359375 0.78125 -0.546875 C 0.601562 -0.734375 0.460938 -0.953125 0.359375 -1.203125 C 0.253906 -1.460938 0.203125 -1.738281 0.203125 -2.03125 C 0.203125 -2.332031 0.253906 -2.609375 0.359375 -2.859375 C 0.460938 -3.117188 0.601562 -3.335938 0.78125 -3.515625 C 0.957031 -3.703125 1.171875 -3.847656 1.421875 -3.953125 C 1.679688 -4.054688 1.960938 -4.109375 2.265625 -4.109375 C 2.472656 -4.109375 2.664062 -4.082031 2.84375 -4.03125 C 3.03125 -3.988281 3.195312 -3.921875 3.34375 -3.828125 C 3.5 -3.742188 3.640625 -3.640625 3.765625 -3.515625 C 3.890625 -3.390625 3.992188 -3.25 4.078125 -3.09375 C 4.160156 -2.945312 4.222656 -2.78125 4.265625 -2.59375 C 4.304688 -2.414062 4.328125 -2.226562 4.328125 -2.03125 Z M 3.5625 -2.03125 C 3.5625 -2.257812 3.53125 -2.460938 3.46875 -2.640625 C 3.40625 -2.816406 3.316406 -2.960938 3.203125 -3.078125 C 3.097656 -3.203125 2.96875 -3.296875 2.8125 -3.359375 C 2.65625 -3.429688 2.472656 -3.46875 2.265625 -3.46875 C 2.066406 -3.46875 1.890625 -3.429688 1.734375 -3.359375 C 1.578125 -3.296875 1.441406 -3.203125 1.328125 -3.078125 C 1.222656 -2.960938 1.140625 -2.816406 1.078125 -2.640625 C 1.015625 -2.460938 0.984375 -2.257812 0.984375 -2.03125 C 0.984375 -1.8125 1.015625 -1.613281 1.078125 -1.4375 C 1.140625 -1.257812 1.222656 -1.109375 1.328125 -0.984375 C 1.441406 -0.859375 1.578125 -0.765625 1.734375 -0.703125 C 1.890625 -0.640625 2.066406 -0.609375 2.265625 -0.609375 C 2.472656 -0.609375 2.65625 -0.640625 2.8125 -0.703125 C 2.96875 -0.765625 3.097656 -0.859375 3.203125 -0.984375 C 3.316406 -1.109375 3.40625 -1.257812 3.46875 -1.4375 C 3.53125 -1.613281 3.5625 -1.8125 3.5625 -2.03125 Z M 3.5625 -2.03125 "/></g></g><g style="fill:#000000;fill-opacity:1;"><g transform="translate(29.758289, 13.749432)"><path style="stroke:none" d="M 3.875 -4.0625 L 3.875 0 L 3.5 0 C 3.4375 0 3.382812 -0.0078125 3.34375 -0.03125 C 3.300781 -0.0507812 3.257812 -0.0820312 3.21875 -0.125 L 1.109375 -2.84375 C 1.117188 -2.71875 1.125 -2.601562 1.125 -2.5 L 1.125 0 L 0.453125 0 L 0.453125 -4.0625 L 0.84375 -4.0625 C 0.875 -4.0625 0.898438 -4.0625 0.921875 -4.0625 C 0.953125 -4.0625 0.972656 -4.054688 0.984375 -4.046875 C 1.003906 -4.035156 1.023438 -4.019531 1.046875 -4 C 1.066406 -3.988281 1.085938 -3.972656 1.109375 -3.953125 L 3.234375 -1.21875 C 3.222656 -1.289062 3.21875 -1.359375 3.21875 -1.421875 C 3.21875 -1.484375 3.21875 -1.539062 3.21875 -1.59375 L 3.21875 -4.0625 Z M 3.875 -4.0625 "/></g></g><g style="fill:#000000;fill-opacity:1;"><g transform="translate(34.337731, 13.749432)"><path style="stroke:none" d="M 2.828125 -0.625 L 2.828125 0 L 0.453125 0 L 0.453125 -4.0625 L 1.203125 -4.0625 L 1.203125 -0.625 Z M 2.828125 -0.625 "/></g></g><g style="fill:#000000;fill-opacity:1;"><g transform="translate(37.504214, 13.749432)"><path style="stroke:none" d="M 1.21875 0 L 0.453125 0 L 0.453125 -4.0625 L 1.21875 -4.0625 Z M 1.265625 -4.765625 C 1.265625 -4.710938 1.253906 -4.660156 1.234375 -4.609375 C 1.210938 -4.554688 1.179688 -4.507812 1.140625 -4.46875 C 1.097656 -4.4375 1.050781 -4.410156 1 -4.390625 C 0.945312 -4.367188 0.890625 -4.359375 0.828125 -4.359375 C 0.773438 -4.359375 0.722656 -4.367188 0.671875 -4.390625 C 0.628906 -4.410156 0.585938 -4.4375 0.546875 -4.46875 C 0.503906 -4.507812 0.472656 -4.554688 0.453125 -4.609375 C 0.429688 -4.660156 0.421875 -4.710938 0.421875 -4.765625 C 0.421875 -4.828125 0.429688 -4.882812 0.453125 -4.9375 C 0.472656 -4.988281 0.503906 -5.03125 0.546875 -5.0625 C 0.585938 -5.101562 0.628906 -5.132812 0.671875 -5.15625 C 0.722656 -5.175781 0.773438 -5.1875 0.828125 -5.1875 C 0.890625 -5.1875 0.945312 -5.175781 1 -5.15625 C 1.050781 -5.132812 1.097656 -5.101562 1.140625 -5.0625 C 1.179688 -5.03125 1.210938 -4.988281 1.234375 -4.9375 C 1.253906 -4.882812 1.265625 -4.828125 1.265625 -4.765625 Z M 1.265625 -4.765625 "/></g></g><g style="fill:#000000;fill-opacity:1;"><g transform="translate(39.415363, 13.749432)"><path style="stroke:none" d="M 3.875 -4.0625 L 3.875 0 L 3.5 0 C 3.4375 0 3.382812 -0.0078125 3.34375 -0.03125 C 3.300781 -0.0507812 3.257812 -0.0820312 3.21875 -0.125 L 1.109375 -2.84375 C 1.117188 -2.71875 1.125 -2.601562 1.125 -2.5 L 1.125 0 L 0.453125 0 L 0.453125 -4.0625 L 0.84375 -4.0625 C 0.875 -4.0625 0.898438 -4.0625 0.921875 -4.0625 C 0.953125 -4.0625 0.972656 -4.054688 0.984375 -4.046875 C 1.003906 -4.035156 1.023438 -4.019531 1.046875 -4 C 1.066406 -3.988281 1.085938 -3.972656 1.109375 -3.953125 L 3.234375 -1.21875 C 3.222656 -1.289062 3.21875 -1.359375 3.21875 -1.421875 C 3.21875 -1.484375 3.21875 -1.539062 3.21875 -1.59375 L 3.21875 -4.0625 Z M 3.875 -4.0625 "/></g></g><g style="fill:#000000;fill-opacity:1;"><g transform="translate(43.994806, 13.749432)"><path style="stroke:none" d="M 1.21875 -3.46875 L 1.21875 -2.34375 L 2.640625 -2.34375 L 2.640625 -1.75 L 1.21875 -1.75 L 1.21875 -0.609375 L 3.015625 -0.609375 L 3.015625 0 L 0.453125 0 L 0.453125 -4.0625 L 3.015625 -4.0625 L 3.015625 -3.46875 Z M 1.21875 -3.46875 "/></g></g></g></svg>